# xmcd
#
# Track frame offsets:
#	150
#	16220
#	41547
#	64300
#	82853
#	112442
#	129536
#	146331
#	175694
#
# Disc length: 2669 seconds
#
# Revision: 1
# Processed by: cddbd v1.5.2PL0 Copyright (c) Steve Scherf et al.
# Submitted via: EZCDAudioConverter 3.1.2.1
#
DISCID=750a6b09
DTITLE=The Mentulls - Reflections
DYEAR=2015
DGENRE=Blues
TTITLE0=Silverbird
TTITLE1=Reflections
TTITLE2=Commotion
TTITLE3=Home Tonight
TTITLE4=Reflections Part 2
TTITLE5=I Can?t Slow Down
TTITLE6=Passage Of Time
TTITLE7=Time To Focus
TTITLE8=Speaking In Silence
EXTD=
EXTT0=
EXTT1=
EXTT2=
EXTT3=
EXTT4=
EXTT5=
EXTT6=
EXTT7=
EXTT8=
PLAYORDER=
